<?xml version="1.0" encoding="UTF-8"?><svg id="Layer_2" xmlns="http://www.w3.org/2000/svg" viewBox="0 0 20.88 22.15"><g id="Layer_1-2"><path d="M7.54,2.63l-5.34,2.97c-1.21.67-2.2,2.35-2.2,3.73v5.65c0,1.38.99,3.06,2.2,3.73l5.34,2.97c1.14.63,3.01.63,4.15,0l5.34-2.97c1.21-.67,2.2-2.35,2.2-3.73v-5.65c0-1.38-.99-3.06-2.2-3.73l-5.34-2.97c-1.15-.64-3.01-.64-4.15,0Z" style="fill:#f90; stroke-width:0px;"/><path d="M1.78,6.09l8.83,5.11,8.77-5.08" style="fill:none; stroke:#000; stroke-linecap:round; stroke-linejoin:round; stroke-width:1.3px;"/><path d="M10.61,20.26v-9.07" style="fill:none; stroke:#000; stroke-linecap:round; stroke-linejoin:round; stroke-width:1.3px;"/><path d="M8.54,1.13l-5.34,2.97c-1.21.67-2.2,2.35-2.2,3.73v5.65c0,1.38.99,3.06,2.2,3.73l5.34,2.97c1.14.63,3.01.63,4.15,0l5.34-2.97c1.21-.67,2.2-2.35,2.2-3.73v-5.65c0-1.38-.99-3.06-2.2-3.73l-5.34-2.97c-1.15-.64-3.01-.64-4.15,0Z" style="fill:none; stroke:#000; stroke-linecap:round; stroke-linejoin:round; stroke-width:1.3px;"/><path d="M15.61,11.89v-3.66L6.12,2.75" style="fill:none; stroke:#000; stroke-linecap:round; stroke-linejoin:round; stroke-width:1.3px;"/></g></svg>