<?xml version="1.0" encoding="UTF-8"?><svg id="Layer_1" xmlns="http://www.w3.org/2000/svg" viewBox="0 0 768 768"><circle cx="384" cy="384" r="384" style="fill:none; stroke-width:0px;"/><path d="M54.58,493.32v-222.1h46.96v97.93h2.93l79.93-97.93h56.28l-82.42,99.44,83.4,122.66h-56.17l-60.84-91.31-23.1,28.19v63.12h-46.96Z" style="fill:#fff; stroke-width:0px;"/><path d="M305.18,496.57c-17.14,0-31.87-3.48-44.19-10.46-12.32-6.98-21.81-16.88-28.47-29.72-6.65-12.83-9.97-28.03-9.97-45.6s3.32-32.18,9.97-45.12c6.66-12.94,16.04-23.03,28.15-30.26,12.1-7.22,26.33-10.84,42.67-10.84,10.99,0,21.24,1.76,30.75,5.26,9.5,3.5,17.82,8.77,24.93,15.77,7.13,7.02,12.67,15.82,16.65,26.41,3.98,10.59,5.96,22.97,5.96,37.14v12.69h-140.65v-28.63h97.16c0-6.65-1.44-12.54-4.34-17.67-2.89-5.13-6.88-9.17-11.98-12.1-5.09-2.93-11-4.39-17.73-4.39s-13.21,1.61-18.6,4.82c-5.39,3.22-9.6,7.52-12.63,12.91-3.04,5.38-4.59,11.36-4.67,17.95v27.21c0,8.24,1.53,15.37,4.61,21.37,3.07,6.01,7.42,10.63,13.07,13.88,5.63,3.26,12.32,4.89,20.06,4.89,5.13,0,9.83-.72,14.1-2.17,4.27-1.45,7.91-3.61,10.95-6.51,3.05-2.89,5.36-6.43,6.94-10.63l42.73,2.82c-2.17,10.27-6.6,19.21-13.29,26.84-6.68,7.63-15.28,13.56-25.81,17.79-10.51,4.23-22.64,6.34-36.38,6.34Z" style="fill:#fff; stroke-width:0px;"/><path d="M389.75,493.32v-222.1h46.2v83.5h1.41c2.02-4.48,4.97-9.06,8.84-13.72,3.87-4.67,8.93-8.57,15.18-11.72,6.25-3.14,14.05-4.72,23.38-4.72,12.14,0,23.35,3.16,33.61,9.49s18.47,15.84,24.61,28.52c6.15,12.69,9.22,28.58,9.22,47.66s-2.98,34.25-8.95,47.01c-5.96,12.76-14.07,22.41-24.3,28.95-10.24,6.55-21.68,9.82-34.33,9.82-8.96,0-16.57-1.49-22.83-4.45-6.25-2.96-11.36-6.7-15.35-11.23-3.97-4.52-7.01-9.09-9.11-13.72h-2.06v26.68h-45.55ZM434.97,410.03c0,9.91,1.37,18.54,4.12,25.92,2.75,7.37,6.72,13.1,11.93,17.19,5.21,4.08,11.54,6.12,18.98,6.12s13.88-2.08,19.09-6.24c5.21-4.15,9.16-9.94,11.88-17.35,2.71-7.4,4.07-15.96,4.07-25.65s-1.34-18.06-4.02-25.37c-2.67-7.31-6.61-13.02-11.82-17.14s-11.6-6.18-19.19-6.18-13.87,1.99-19.03,5.96-9.13,9.62-11.88,16.91c-2.75,7.31-4.12,15.9-4.12,25.81Z" style="fill:#fff; stroke-width:0px;"/><path d="M666.81,422.39v-95.65h46.19v166.57h-44.35v-30.26h-1.74c-3.76,9.77-9.99,17.61-18.7,23.54-8.71,5.92-19.32,8.89-31.84,8.89-11.13,0-20.93-2.53-29.39-7.59-8.46-5.06-15.06-12.26-19.79-21.58-4.74-9.33-7.14-20.5-7.21-33.51v-106.06h46.19v97.82c.07,9.83,2.72,17.61,7.92,23.32,5.2,5.71,12.17,8.56,20.93,8.56,5.56,0,10.77-1.28,15.61-3.85,4.85-2.57,8.77-6.38,11.77-11.44,2.99-5.06,4.46-11.32,4.39-18.77Z" style="fill:#fff; stroke-width:0px;"/></svg>